# xmcd
#
# Track frame offsets: 
#        150
#        12741
#        33018
#        49409
#        63804
#        81208
#        100340
#        118887
#        136413
#        152333
#        167348
#        186665
#
# Disc length: 2708 seconds
#
# Revision: 0
# Processed by: cddbd v1.5.2PL0 Copyright (c) Steve Scherf et al.
# Submitted via: ExactAudioCopy v1.0b3
#
DISCID=9c0a920c
DTITLE=Виктор Калина - Старые друзья
DYEAR=1900
DGENRE=
TTITLE0=Семерка, тройка, туз
TTITLE1=За пацанов
TTITLE2=Ты как облако
TTITLE3=Париж-Москва
TTITLE4=На любовном фронте
TTITLE5=До утра
TTITLE6=Тетя Клава
TTITLE7=Материнское счастье
TTITLE8=На окраине Москвы
TTITLE9=Ты прости меня, сын
TTITLE10=Провинциальная невеста
TTITLE11=Биография моя
EXTD=
EXTT0=
EXTT1=
EXTT2=
EXTT3=
EXTT4=
EXTT5=
EXTT6=
EXTT7=
EXTT8=
EXTT9=
EXTT10=
EXTT11=
PLAYORDER=
